# xmcd
#
# Track frame offsets:
#	150
#	23134
#	53502
#	78710
#	97925
#	124185
#	147618
#	164901
#	186948
#	197589
#	212548
#	234259
#
# Disc length: 3739 seconds
#
# Revision: 1
# Processed by: cddbd v1.5PL3 Copyright (c) Steve Scherf et al.
# Submitted via: audiograbber 1.80
#
DISCID=a50e990c
DTITLE=Ian Siegal - Shake hands with the devil
DYEAR=1900
DGENRE=
TTITLE0=Revelator
TTITLE1=Freedom Highway
TTITLE2=Shake hands with the devil
TTITLE3=This heart
TTITLE4=Early Grace
TTITLE5=Scarecrow
TTITLE6=Brand new ford
TTITLE7=Groundhog blues
TTITLE8=Deep blue sea
TTITLE9=Grinnin' in your face
TTITLE10=Freight train a-comin
TTITLE11=Bonus Track
EXTD=
EXTT0=
EXTT1=
EXTT2=
EXTT3=
EXTT4=
EXTT5=
EXTT6=
EXTT7=
EXTT8=
EXTT9=
EXTT10=
EXTT11=
PLAYORDER=
